<svg id="Layer_1" data-name="Layer 1" xmlns="http://www.w3.org/2000/svg" viewBox="0 0 287.93 255.53"><defs><style>.cls-1{fill:#d41338;}.cls-2{fill:#efeff9;}</style></defs><path class="cls-1" d="M400,203.74c-.67,29.95-10,57.42-25.13,82.92C353.44,322.75,326,353,287.69,372a125.9,125.9,0,0,1-11.81,5.29c-24,8.91-16.3,9.38-40.4-.38-46-18.66-77.64-53.25-101.34-95.63-14.06-25.13-22.56-52.05-22-81.23.25-14.14,3.22-27.69,10.37-40.06,13.18-22.8,39-34.37,67.1-30.77,23.12,3,43.82,11.85,63,24.57,2.61,1.72,4.35,1.73,7,0,19-12.69,39.6-21.41,62.55-24.44,40.09-5.3,72.69,20,76.93,60A114,114,0,0,1,400,203.74Zm-96.65,76.7h17.5c9.19,0,14.38-4.43,15-13.59a160.79,160.79,0,0,0,0-20.94c-.63-9-5.77-13.35-14.67-13.35-12.16,0-24.33-.15-36.48.08-3.62.07-4.83-.68-4.73-4.56.28-12.13.1-24.27.1-36.41,0-9.12-4.54-14.29-13.73-14.82a177.12,177.12,0,0,0-20.48,0c-9.19.53-13.77,5.72-13.77,14.8,0,12.31-.12,24.61.08,36.91.06,3.35-1,4.12-4.18,4.08-12.32-.18-24.65-.08-37-.07-8.88,0-14.08,4.4-14.7,13.32a162.57,162.57,0,0,0,0,20.94c.55,9.15,5.75,13.62,14.93,13.62,12,0,24,.14,36-.08,3.73-.07,5.11.68,5,4.79-.31,12-.11,23.94-.11,35.91,0,9.26,4.35,14.45,13.49,15.06a159.5,159.5,0,0,0,21,0c9.18-.6,13.52-5.74,13.52-15,0-12.14.15-24.28-.09-36.42-.07-3.58,1-4.48,4.44-4.33C290.66,280.65,297,280.44,303.33,280.44Z" transform="translate(-112.07 -128.52)"/><path class="cls-2" d="M303.33,280.44c-6.33,0-12.67.21-19-.08-3.45-.15-4.51.75-4.44,4.33.24,12.14.09,24.28.09,36.42,0,9.27-4.34,14.41-13.52,15a159.5,159.5,0,0,1-21,0c-9.14-.61-13.49-5.8-13.49-15.06,0-12-.2-23.95.11-35.91.11-4.11-1.27-4.86-5-4.79-12,.22-24,.09-36,.08-9.18,0-14.38-4.47-14.93-13.62a162.57,162.57,0,0,1,0-20.94c.62-8.92,5.82-13.32,14.7-13.32,12.33,0,24.66-.11,37,.07,3.19,0,4.24-.73,4.18-4.08-.2-12.3-.08-24.6-.08-36.91,0-9.08,4.58-14.27,13.77-14.8a177.12,177.12,0,0,1,20.48,0c9.19.53,13.73,5.7,13.73,14.82,0,12.14.18,24.28-.1,36.41-.1,3.88,1.11,4.63,4.73,4.56,12.15-.23,24.32-.09,36.48-.08,8.9,0,14,4.36,14.67,13.35a160.79,160.79,0,0,1,0,20.94c-.58,9.16-5.77,13.59-15,13.59Z" transform="translate(-112.07 -128.52)"/></svg>